<svg viewBox="0 0 100 100" xmlns="http://www.w3.org/2000/svg" fill="none">
  <rect width="100" height="100" fill="#0A0A0A"/>

  <!-- Hook -->
  <path d="M 50 30 C 50 18 56 12 62 12 C 70 12 71 22 64 22"
        stroke="white" stroke-width="7" stroke-linecap="round"/>

  <!-- Hanger triangle -->
  <path d="M 50 30 L 16 72 L 84 72 Z"
        stroke="white" stroke-width="7"
        stroke-linejoin="round" stroke-linecap="round"/>

  <!-- Vibrant heart sitting on right shoulder -->
  <path d="M 62 50 C 61 46 57 43 53 43 C 49 43 46 47 46 52 C 46 57 50 61 62 70 C 74 61 78 57 78 52 C 78 47 75 43 71 43 C 67 43 63 46 62 50 Z"
        fill="#FF2E47"/>
</svg>
