<svg viewBox="0 0 100 100" xmlns="http://www.w3.org/2000/svg" fill="none">
  <defs>
    <radialGradient id="sfico-heart-aura" cx="50%" cy="50%" r="50%">
      <stop offset="0%"   stop-color="#FF2E47" stop-opacity="0.7"/>
      <stop offset="45%"  stop-color="#FF2E47" stop-opacity="0.25"/>
      <stop offset="100%" stop-color="#FF2E47" stop-opacity="0"/>
    </radialGradient>
    <filter id="sfico-heart-bloom" x="-50%" y="-50%" width="200%" height="200%">
      <feGaussianBlur stdDeviation="1.6" result="b1"/>
      <feMerge>
        <feMergeNode in="b1"/>
        <feMergeNode in="SourceGraphic"/>
      </feMerge>
    </filter>
  </defs>

  <rect width="100" height="100" fill="#0A0A0A"/>

  <!-- Heart aura halo -->
  <circle cx="72" cy="55" r="28" fill="url(#sfico-heart-aura)"/>

  <!-- Hanger (scaled to fit left side of square) -->
  <g stroke="white" stroke-width="5" stroke-linecap="round" stroke-linejoin="round">
    <!-- Hook + stem -->
    <path d="M 28 56 L 28 28 C 28 24 31 22 35 22 C 41 22 44 24 44 28 L 44 34 C 44 37 42 37 41 35"/>
    <!-- Shoulders -->
    <path d="M 28 51 L 8 78"/>
    <path d="M 28 51 L 50 78"/>
    <!-- Crossbar -->
    <path d="M 8 78 L 50 78"/>
  </g>

  <!-- Heart -->
  <path
    d="M 72 47 C 69 41 60 41 60 51 C 60 60 65 65 72 70 C 79 65 84 60 84 51 C 84 41 75 41 72 47 Z"
    fill="#FF2E47"
    filter="url(#sfico-heart-bloom)"
  />
</svg>
